<svg width="472" height="206" viewBox="0 0 472 206" fill="none" xmlns="http://www.w3.org/2000/svg">
<path d="M391.08 82.7896C378.08 94.2896 391.08 101.79 396.08 95.2896C395.08 111.79 394.58 119.29 397.58 136.79C400.323 152.79 418.08 147.29 416.58 136.79L413.08 107.29C413.08 101.79 419.319 97.2896 422.58 107.29C425.58 123.29 438.08 116.29 436.08 107.29C437.08 99.2896 446.58 99.7896 447.58 107.29L458.08 114.29L456.58 78.2896C438.913 74.623 401.08 70.3896 391.08 82.7896Z" fill="#262626"/>
<path fill-rule="evenodd" clip-rule="evenodd" d="M382.08 67.2896C382.88 76.0896 388.08 80.7896 391.08 82.7896C415.58 74.7896 431.58 75.7896 439.08 87.2896C455.88 110.49 442.747 154.623 434.08 173.79C425.58 204.79 463.615 206.29 466.08 181.79C478.99 53.4707 434.059 51.8038 411.438 51.7897C411.805 50.2569 412.166 44.0153 411.58 28.7896C409.58 9.78964 400.247 20.123 395.08 28.7896C391.58 27.2896 386.08 25.2896 379.58 28.7896C369.98 7.58963 365.08 17.7896 365.08 23.7896C365.08 23.7896 364.58 41.2896 366.08 49.2896C366.354 53.6716 370.378 56.5534 374.373 59.4142C377.671 61.7762 380.949 64.1239 382.08 67.2896ZM384.08 44.2897C383.08 42.2896 393.747 42.4563 393.08 44.2897C392.413 46.123 390.08 50.2896 388.58 50.2896C386.889 50.2896 385.556 47.4314 384.58 45.3391C384.401 44.9563 384.235 44.599 384.08 44.2897Z" fill="#828282"/>
<path d="M438 179L434.08 173.79C425.844 203.826 461.294 206.168 465.749 184L457.5 186.5L456.5 181.79L451 184L449.5 179L445 181.79L443 177L438 179Z" fill="#BDBDBD"/>
<path fill-rule="evenodd" clip-rule="evenodd" d="M363.441 93.9371C363.282 86.8679 379.188 80.2155 381.313 96.0816C382.465 115.86 382.703 126.464 379.486 140.682C378.652 147.632 368.684 150.968 365.229 141.992C354.903 148.307 342.551 146.322 334.092 141.278C322.038 136.81 309.644 101.607 339.234 90.0254C346.632 87.1301 359.886 89.9855 363.441 93.9371ZM349.779 128.053C356.359 128.842 362.334 124.148 363.123 117.568C363.913 110.987 359.219 105.013 352.638 104.223C346.058 103.434 340.084 108.128 339.294 114.708C338.505 121.289 343.199 127.263 349.779 128.053Z" fill="#262626"/>
<path d="M290 147C275.51 146.475 277.41 114.304 279.994 98.2207C276.833 102.609 270.084 102.865 268.592 95.3059C269.045 82.8141 284.755 81.8824 294.528 83.7374C295.636 80.7756 303.812 76.0685 312.751 77.8934C323.014 81.8676 323.119 90.944 322.629 95.2624C321.836 98.736 318.613 103.923 312.064 96.881C305.514 89.8392 298.572 96.3922 297.928 100.371C296.223 119.822 304.49 147.525 290 147Z" fill="#262626"/>
<path d="M259.303 79C261.439 79 263.206 79.6985 264.603 81.0954C266 82.4924 266.698 84.3002 266.698 86.5189V170.218C266.698 180.243 263.576 187.639 257.33 192.405C251.167 197.253 243.32 199.677 233.788 199.677C231.322 199.677 227.912 199.267 223.557 198.445C219.284 197.623 216.243 196.801 214.435 195.98C210.409 194.254 205.396 188.371 205.396 185.33C205.396 184.755 205.519 184.098 205.765 183.358C206.259 181.55 207.035 179.164 208.186 178.177C209.575 176.987 210.289 176.677 211.686 176.677C212.508 176.677 213.446 176.931 214.186 177.177C214.515 177.26 216.988 177.77 220.686 179.167C224.466 180.647 227.186 181.677 231.686 182.677C238.186 183.177 240.728 183.643 243.686 181.177C246.726 178.794 247.346 175.879 247.346 171.442L247.676 157.31L247.455 147.821C247.406 145.751 245.194 144.675 243.186 145.177V145.177C239.186 146.677 236.129 147.41 231.939 147.41C226.186 147.41 220.927 145.972 216.161 143.096C211.477 140.138 207.779 136.07 205.068 130.893C202.356 125.716 201 119.841 201 113.267C201 106.693 202.315 100.817 204.944 95.6403C207.656 90.3811 211.313 86.3135 215.915 83.4374C220.599 80.4791 225.776 79 231.446 79C235.636 79 239.54 79.8628 243.155 81.5885C246.283 83.081 248.887 84.8501 250.969 86.8958C251.31 87.23 251.907 86.9958 251.907 86.5189V86.5189C251.907 84.3824 252.605 82.6157 254.002 81.2187C255.399 79.7396 257.166 79 259.303 79ZM233.788 125.971C239.293 125.971 242.735 124.04 246.186 120.177C248.186 117.177 248.686 116.677 249.186 113.267C249.186 108.929 248.186 106.677 245.686 102.677C242.235 98.7331 239.416 97.2609 233.911 97.2609C228.405 97.2609 225.137 99.2331 221.686 103.177C220.352 107.677 220.352 108.677 220.352 113.267C220.352 116.677 220.686 117.177 221.686 120.177C225.137 124.04 228.282 125.971 233.788 125.971Z" fill="#262626"/>
<path d="M180.912 43.2358C170.597 41.6894 168.525 62.0598 168.779 72.4383C156.096 74.5309 144.908 76.7315 145.685 86.8135C146.306 94.8791 161.744 95.826 168.656 94.9879C169.213 112.741 164.862 147.351 181.834 148.575C194.8 149.511 192.013 111.712 191.349 93.1163C196.657 93.6664 207.43 92.5722 208.064 83.795C208.697 75.0178 196.766 73.6223 190.722 74.0216C191.75 64.404 191.228 44.7822 180.912 43.2358Z" fill="#262626"/>
<path fill-rule="evenodd" clip-rule="evenodd" d="M83 96C79 113.167 78.9 147.9 110.5 149.5C142.1 151.1 147.667 134.5 146.5 126C145.951 122 141.5 115.5 133.5 119.5C131.006 121.314 129.232 123.23 127.665 124.923C125.775 126.964 124.186 128.68 122 129.5C115.333 132 102.3 132.5 103.5 114.5C104.931 114.5 106.473 114.509 108.087 114.519C118.312 114.581 131.386 114.659 137 112.5C142.5 110.385 144 109.5 146.5 104.5C148.5 98.5 147 74 116 69.5C91.2 65.9 83.6667 85.6667 83 96ZM106.5 99H129.5C129.5 94.5 127.3 85.2 118.5 84C109.7 82.8 106.833 93.5 106.5 99Z" fill="#262626"/>
<path d="M7 36C-0.200001 66.8 19.3333 81.5 30 85C76 106.5 112 81 119.5 63.5C125.5 49.5 117 42.3333 112 40.5C100.5 38 86.3721 40.5 82.5 36C70 19 57 11.4259 53 9.50001C39.5 3 20 8.50001 7 36Z" fill="#262626"/>
<path d="M11.5 143C-3.49999 104 8.5 77 21 33.5C25.7884 19 39 16.5 43.5 29C53.5 69.8 67.7272 113 60.5 139.5C56.1364 155.5 20.5 161 11.5 143Z" fill="#828282"/>
<path d="M103 39C101.073 45.8027 102.258 59.8265 119.5 63.5C123.705 53.8061 124.026 39 103 39Z" fill="#828282"/>
</svg>
